<svg xmlns="http://www.w3.org/2000/svg" width="496" height="512"><rect id="backgroundrect" width="100%" height="100%" x="0" y="0" fill="none" stroke="none"/><g class="currentLayer" style=""><title>Layer 1</title><path d="M234.92307233810425,41.076932191848755 C105.14702028036118,41.076932191848755 0,146.22395247220993 0,276.000004529953 s105.14702028036118,234.92307233810425 234.92307233810425,234.92307233810425 s234.92307233810425,-105.14702028036118 234.92307233810425,-234.92307233810425 S364.6991243958473,41.076932191848755 234.92307233810425,41.076932191848755 zm0,424.3771629333496 c-104.48393096327781,0 -189.45409059524536,-84.97015963196755 -189.45409059524536,-189.45409059524536 S130.43914137482642,86.54591393470764 234.92307233810425,86.54591393470764 s189.45409059524536,84.97015963196755 189.45409059524536,189.45409059524536 s-84.97015963196755,189.45409059524536 -189.45409059524536,189.45409059524536 zm-75.78163623809814,-204.610417842865 c16.766687017679214,0 30.312654495239258,-13.545967477560044 30.312654495239258,-30.312654495239258 s-13.545967477560044,-30.312654495239258 -30.312654495239258,-30.312654495239258 s-30.312654495239258,13.545967477560044 -30.312654495239258,30.312654495239258 s13.545967477560044,30.312654495239258 30.312654495239258,30.312654495239258 zm151.5632724761963,0 c16.766687017679214,0 30.312654495239258,-13.545967477560044 30.312654495239258,-30.312654495239258 s-13.545967477560044,-30.312654495239258 -30.312654495239258,-30.312654495239258 s-30.312654495239258,13.545967477560044 -30.312654495239258,30.312654495239258 s13.545967477560044,30.312654495239258 30.312654495239258,30.312654495239258 zm3.7890818119049072,68.77183488607406 c-19.703225421905522,23.68176132440567 -48.78442832827568,37.322455847263335 -79.57071805000305,37.322455847263335 s-59.86749262809754,-13.545967477560044 -79.57071805000305,-37.322455847263335 c-8.051798850297928,-9.662158620357513 -22.450309735536575,-10.893610209226608 -32.01774131059646,-2.9365384042263027 c-9.662158620357513,8.051798850297928 -10.893610209226608,22.355582690238954 -2.9365384042263027,32.01774131059646 c28.418113589286804,34.101736307144165 70.1927405655384,53.61550763845444 114.52499776482583,53.61550763845444 s86.10688417553902,-19.513771331310274 114.52499776482583,-53.61550763845444 c8.051798850297928,-9.662158620357513 6.72562021613121,-23.96594246029854 -2.9365384042263027,-32.01774131059646 c-9.56743157505989,-7.9570718050003055 -23.96594246029854,-6.72562021613121 -32.01774131059646,2.9365384042263027 z" id="svg_1" class=""/><path fill="#ffffff" stroke-dashoffset="" fill-rule="nonzero" marker-start="" marker-mid="" marker-end="" id="svg_2" d="M325.23243099634806,66.32933553108273 L388.1103584014005,66.32933553108273 L407.54012180619435,6.727789651100855 L426.9698962590177,66.32933553108273 L489.8478126160429,66.32933553108273 L438.9785938721761,103.16469499987504 L458.4093626460981,162.7662408798575 L407.54012180619435,125.92987826736551 L356.67089201432407,162.7662408798575 L376.1016663122457,103.16469499987504 L325.23243099634806,66.32933553108273 z" style="color: rgb(0, 0, 0);" class="" fill-opacity="1" stroke="#000000" stroke-opacity="1" stroke-width="4"/></g></svg>