<svg xmlns="http://www.w3.org/2000/svg" viewBox="0 0 496 512">
        <path d="M182.28293834328653,277.1811442375183 c11.28461525440216,-17.01792784333229 13.741749221086502,-33.94485072493553 14.287778991460799,-50.96277856826782 c-0.45502480864524847,-17.01792784333229 -3.0031637370586393,-33.94485072493553 -14.287778991460799,-50.96277856826782 c-7.280396938323975,-10.920595407485962 -22.842245393991472,-10.374565637111663 -29.75862248539925,0 c-11.28461525440216,17.01792784333229 -13.741749221086502,33.94485072493553 -14.287778991460799,50.96277856826782 c0.45502480864524847,17.01792784333229 3.0031637370586393,33.94485072493553 14.287778991460799,50.96277856826782 c7.371401900053024,10.920595407485962 22.93325035572052,10.374565637111663 29.75862248539925,0 zm116.4863510131836,0 c11.28461525440216,-17.01792784333229 13.741749221086502,-33.94485072493553 14.287778991460799,-50.96277856826782 c-0.45502480864524847,-17.01792784333229 -3.0031637370586393,-33.94485072493553 -14.287778991460799,-50.96277856826782 c-7.280396938323975,-10.920595407485962 -22.842245393991472,-10.374565637111663 -29.75862248539925,0 c-11.28461525440216,17.01792784333229 -13.741749221086502,33.94485072493553 -14.287778991460799,50.96277856826782 c0.45502480864524847,17.01792784333229 3.0031637370586393,33.94485072493553 14.287778991460799,50.96277856826782 c7.371401900053024,10.920595407485962 22.93325035572052,10.374565637111663 29.75862248539925,0 zM225.6923050880432,58.76923608779907 C101.01550751924515,58.76923608779907 0,159.78474360704422 0,284.4615411758423 s101.01550751924515,225.6923050880432 225.6923050880432,225.6923050880432 s225.6923050880432,-101.01550751924515 225.6923050880432,-225.6923050880432 S350.3691026568413,58.76923608779907 225.6923050880432,58.76923608779907 zm0,407.7022285461426 c-100.3784727871418,0 -182.00992345809937,-81.63145067095756 -182.00992345809937,-182.00992345809937 S125.3138323009014,102.45161771774292 225.6923050880432,102.45161771774292 s182.00992345809937,81.63145067095756 182.00992345809937,182.00992345809937 s-81.63145067095756,182.00992345809937 -182.00992345809937,182.00992345809937 zm96.10123958587646,-137.7815120577812 c-23.570285087823866,7.553411823511125 -58.607195353508004,11.921649986505509 -96.10123958587646,11.921649986505509 s-72.43994953632354,-4.368238162994385 -96.10123958587646,-11.921649986505509 c-9.009491211175918,-2.82115381360054 -17.654962575435636,4.8232629716396325 -16.107878226041795,13.923759144544603 c7.1893919765949255,42.954341936111454 64.88653771281243,72.80396938323975 112.20911781191826,72.80396938323975 s104.92872087359429,-29.940632408857343 112.20911781191826,-72.80396938323975 c1.456079387664795,-8.91848624944687 -7.007382053136825,-16.74491295814514 -16.107878226041795,-13.923759144544603 z"
        />
        <path fill="#ffffff" stroke="#000000" stroke-width="4"
              d="M379.9419403495042,83.12101416019753 L446.63955296571197,83.12101416019753 L467.24962849269775,19.75856109063994 L487.85971573882864,83.12101416019753 L554.5573166358811,83.12101416019753 L500.59791329850054,122.28071549313782 L521.2090552683836,185.6431685626951 L467.24962849269775,146.4824007868527 L413.29021343615807,185.6431685626951 L433.90136126562675,122.28071549313782 L379.9419403495042,83.12101416019753 z"
              transform="translate(-66.92308044433594,-12.307692527770996) "/>
</svg>
