<svg xmlns="http://www.w3.org/2000/svg" viewBox="0 0 496 512">
    <path d="M233.76923030614853,41.8461549282074 C105.05552089214325,41.8461549282074 0.7692307829856873,146.13244503736496 0.7692307829856873,274.84615445137024 s104.28629010915756,232.99999952316284 232.99999952316284,232.99999952316284 s232.99999952316284,-104.28629010915756 232.99999952316284,-232.99999952316284 S362.4829397201538,41.8461549282074 233.76923030614853,41.8461549282074 zm132.8475803732872,365.84757989645004 c-35.51370960474014,35.51370960474014 -82.67741918563843,55.05564504861832 -132.8475803732872,55.05564504861832 s-97.33387076854706,-19.541935443878174 -132.8475803732872,-55.05564504861832 S45.86600488424301,325.016315639019 45.86600488424301,274.84615445137024 s19.541935443878174,-97.33387076854706 55.05564504861832,-132.8475803732872 S183.59906911849976,86.94292902946472 233.76923030614853,86.94292902946472 s97.33387076854706,19.541935443878174 132.8475803732872,55.05564504861832 S421.67245572805405,224.67599326372147 421.67245572805405,274.84615445137024 s-19.541935443878174,97.33387076854706 -55.05564504861832,132.8475803732872 zM308.93052047491074,177.13647723197937 c-22.360483825206757,0 -49.512499898672104,27.52782252430916 -52.612903118133545,67.08145147562027 c-0.6576612889766694,8.079838693141937 10.146774172782898,11.180241912603378 13.998790293931961,4.227822571992874 l8.925403207540512,-15.971774160861969 c7.234274178743362,-12.871370941400528 18.03870964050293,-20.293548345565796 29.59475800395012,-20.293548345565796 s22.360483825206757,7.422177404165268 29.59475800395012,20.293548345565796 l8.925403207540512,15.971774160861969 c3.8520161211490627,6.952419340610504 14.65645158290863,3.7580645084381104 13.998790293931961,-4.227822571992874 c-2.9124999940395355,-39.55362895131111 -30.064516067504883,-67.08145147562027 -52.42499989271164,-67.08145147562027 zm-188.84274154901505,71.30927404761314 l8.925403207540512,-15.971774160861969 c7.234274178743362,-12.871370941400528 18.03870964050293,-20.293548345565796 29.59475800395012,-20.293548345565796 s22.360483825206757,7.422177404165268 29.59475800395012,20.293548345565796 l8.925403207540512,15.971774160861969 c3.8520161211490627,6.952419340610504 14.65645158290863,3.7580645084381104 13.998790293931961,-4.227822571992874 c-3.100403219461441,-39.55362895131111 -30.252419292926792,-67.08145147562027 -52.612903118133545,-67.08145147562027 s-49.512499898672104,27.52782252430916 -52.612903118133545,67.08145147562027 c-0.5637096762657169,7.9858870804309845 10.24072578549385,11.180241912603378 14.186693519353867,4.227822571992874 zM341.2498752474785,304.9106705188751 H126.28858536481857 c-7.704032242298125,0 -13.62298384308815,6.576612889766693 -12.683467715978622,14.092741906642914 c7.046370953321457,55.61935472488403 55.337499886751175,98.6491933465004 113.77540299296379,98.6491933465004 h12.777419328689575 c58.437903106212616,0 106.72903203964233,-43.02983862161636 113.77540299296379,-98.6491933465004 c0.9395161271095275,-7.516129016876221 -4.979435473680496,-14.092741906642914 -12.683467715978622,-14.092741906642914 z"
    />
    <path fill="#ffffff"
          d="M328.3165757672767,65.4285808274988 L390.900679952562,65.4285808274988 L410.23964972153107,5.973943565459695 L429.5786304868823,65.4285808274988 L492.16272367577716,65.4285808274988 L441.5312124750007,102.17314681650635 L460.8711829150717,161.62778407854532 L410.23964972153107,124.882217418433 L359.60812752436755,161.62778407854532 L378.948103462634,102.17314681650635 L328.3165757672767,65.4285808274988 z"
          stroke="#000000"
          stroke-width="4"/>
    <path
            d="M311.0572993030766,88.18067987999348 L314.76873727796664,88.18067987999348 L315.9156001711916,84.65482932432553 L317.0624637165372,88.18067987999348 L320.7739010393063,88.18067987999348 L317.7712901392556,90.35975041807616 L318.9182123754838,93.88560097374416 L315.9156001711916,91.70647109265751 L312.9129886190199,93.88560097374416 L314.0599111813085,90.35975041807616 L311.0572993030766,88.18067987999348 z"
    />
    <path
            d="M309.52655003661147,69.02242265611225 L310.76369562475537,69.02242265611225 L311.14598313115,67.84713952086638 L311.5282708549182,69.02242265611225 L312.7654162256886,69.02242265611225 L311.7645462520981,69.748779265244 L312.14685353948767,70.92406240048982 L311.14598313115,70.19768601036333 L310.1451129401859,70.92406240048982 L310.52742033626225,69.748779265244 L309.52655003661147,69.02242265611225 z"
    />
</svg>
