<svg width="496" height="512" xmlns="http://www.w3.org/2000/svg">

 <g>
  <title>background</title>
  <rect fill="none" id="canvas_background" height="402" width="582" y="-1" x="-1"/>
 </g>
 <g>
  <title>Layer 1</title>
  <path id="svg_1" d="m248,8c-137,0 -248,111 -248,248s111,248 248,248s248,-111 248,-248s-111,-248 -248,-248zm0,448c-110.3,0 -200,-89.7 -200,-200s89.7,-200 200,-200s200,89.7 200,200s-89.7,200 -200,200zm-80,-216c17.7,0 32,-14.3 32,-32s-14.3,-32 -32,-32s-32,14.3 -32,32s14.3,32 32,32zm160,-64c-17.7,0 -32,14.3 -32,32s14.3,32 32,32s32,-14.3 32,-32s-14.3,-32 -32,-32zm-80,128c-40.2,0 -78,17.7 -103.8,48.6c-8.5,10.2 -7.1,25.3 3.1,33.8c10.2,8.4 25.3,7.1 33.8,-3.1c16.6,-19.9 38,2.6 63.9,2.6s53.3,-22.6 69.9,-2.6c8.1,9.7 23.1,11.9 33.8,3.1c10.2,-8.5 11.5,-23.6 3.1,-33.8c-25.8,-30.9 -63.6,-48.6 -103.8,-48.6z"/>
 </g>
</svg>