<svg xmlns="http://www.w3.org/2000/svg" viewBox="0 0 496 512">
    <path d="M234.07142412662506,45.85715198516846 C105.55500948429108,45.85715198516846 1.428571343421936,149.9835901260376 1.428571343421936,278.5000047683716 s104.12643814086914,232.64285278320312 232.64285278320312,232.64285278320312 s232.64285278320312,-104.12643814086914 232.64285278320312,-232.64285278320312 S362.58783876895905,45.85715198516846 234.07142412662506,45.85715198516846 zm0,420.258056640625 c-103.46978492736817,0 -187.61520385742188,-84.14541893005371 -187.61520385742188,-187.61520385742188 S130.60163919925688,90.8848009109497 234.07142412662506,90.8848009109497 s187.61520385742188,84.14541893005371 187.61520385742188,187.61520385742188 s-84.14541893005371,187.61520385742188 -187.61520385742188,187.61520385742188 zm99.06082763671874,-142.02470932006835 c-24.29616889953613,7.786030960083009 -60.41209564208985,12.288795852661133 -99.06082763671874,12.288795852661133 s-74.6708511352539,-4.502764892578125 -99.06082763671874,-12.288795852661133 c-9.286952590942382,-2.908035659790039 -18.19867477416992,5.065610504150391 -16.603945541381837,14.352563095092775 c7.4108005523681655,44.18338050842285 66.8848201751709,75.04608154296875 115.66477317810059,75.04608154296875 s108.16016502380371,-30.862701034545896 115.66477317810059,-75.04608154296875 c1.5009216308593758,-9.193144989013673 -7.223185348510742,-17.26059875488281 -16.603945541381837,-14.352563095092775 zM159.0253425836563,263.49078845977783 c16.603945541381837,0 30.0184326171875,-13.414487075805665 30.0184326171875,-30.0184326171875 s-13.414487075805665,-30.0184326171875 -30.0184326171875,-30.0184326171875 s-30.0184326171875,13.414487075805665 -30.0184326171875,30.0184326171875 s13.414487075805665,30.0184326171875 30.0184326171875,30.0184326171875 zm150.0921630859375,0 c16.603945541381837,0 30.0184326171875,-13.414487075805665 30.0184326171875,-30.0184326171875 s-13.414487075805665,-30.0184326171875 -30.0184326171875,-30.0184326171875 s-30.0184326171875,13.414487075805665 -30.0184326171875,30.0184326171875 s13.414487075805665,30.0184326171875 30.0184326171875,30.0184326171875 z"/>
    <path fill="#ffffff"
          d="M318.96861533821624,70.68454977548627 L384.17613876951856,70.68454977548627 L404.3257652723318,8.737675200344762 L424.4754032324892,70.68454977548627 L489.6829152064513,70.68454977548627 L436.92901713654777,108.96938550002227 L457.079686256905,170.9162600751635 L404.3257652723318,132.63038173309113 L351.57185574510163,170.9162600751635 L371.7225305941252,108.96938550002227 L318.96861533821624,70.68454977548627 z"
          stroke="#000000"
          stroke-width="4"/>
    <path
            d="M462.8495601443292,107.12122375523788 L463.1367559605187,107.12122375523788 L463.2255016776519,106.84838893085225 L463.31424744524713,107.12122375523788 L463.60144321097465,107.12122375523788 L463.36909734018997,107.28984301977997 L463.45784764936076,107.56267784416552 L463.2255016776519,107.39405398758596 L462.9931557564052,107.56267784416552 L463.0819060908069,107.28984301977997 L462.8495601443292,107.12122375523788 z"
    />
</svg>
