<svg width="496" height="512" xmlns="http://www.w3.org/2000/svg">

 <g>
  <title>background</title>
  <rect fill="none" id="canvas_background" height="402" width="582" y="-1" x="-1"/>
 </g>
 <g>
  <title>Layer 1</title>
  <path id="svg_1" d="m249,8c-137,0 -248,111 -248,248s111,248 248,248s248,-111 248,-248s-111,-248 -248,-248zm0,448c-110.3,0 -200,-89.7 -200,-200s89.7,-200 200,-200s200,89.7 200,200s-89.7,200 -200,200zm88,-304c-39.8,0 -72,32.2 -72,72s32.2,72 72,72s72,-32.2 72,-72s-32.2,-72 -72,-72zm0,112c-22.1,0 -40,-17.9 -40,-40c0,-13.6 7.3,-25.1 17.7,-32.3c-1,2.6 -1.7,5.3 -1.7,8.3c0,13.3 10.7,24 24,24s24,-10.7 24,-24c0,-2.9 -0.7,-5.7 -1.7,-8.3c10.4,7.2 17.7,18.7 17.7,32.3c0,22.1 -17.9,40 -40,40zm-104,-40c0,-39.8 -32.2,-72 -72,-72s-72,32.2 -72,72s32.2,72 72,72s72,-32.2 72,-72zm-112,0c0,-13.6 7.3,-25.1 17.7,-32.3c-1,2.6 -1.7,5.3 -1.7,8.3c0,13.3 10.7,24 24,24s24,-10.7 24,-24c0,-2.9 -0.7,-5.7 -1.7,-8.3c10.4,7.2 17.7,18.7 17.7,32.3c0,22.1 -17.9,40 -40,40s-40,-17.9 -40,-40zm8,122c18.666667,18 27.333333,41 56,54c35,23 98,-29 140,-29c-65.333333,-8.333333 -129.666667,15.333333 -196,-25z"/>
 </g>
</svg>