<svg xmlns="http://www.w3.org/2000/svg" width="496" height="512"><rect id="backgroundrect" width="100%" height="100%" x="0" y="0" fill="none" stroke="none"/><g class="currentLayer" style=""><title>Layer 1</title><path d="M232.99999231100082,45.692323207855225 C104.71122485399246,45.692323207855225 0.7692307829856873,149.634317278862 0.7692307829856873,277.92308473587036 s103.94199407100677,232.23076152801514 232.23076152801514,232.23076152801514 s232.23076152801514,-103.94199407100677 232.23076152801514,-232.23076152801514 S361.2887597680092,45.692323207855225 232.99999231100082,45.692323207855225 zm0,419.51363372802734 c-103.28650401830673,0 -187.2828722000122,-83.99636818170548 -187.2828722000122,-187.2828722000122 S129.71348829269408,90.64021253585815 232.99999231100082,90.64021253585815 s187.2828722000122,83.99636818170548 187.2828722000122,187.2828722000122 s-83.99636818170548,187.2828722000122 -187.2828722000122,187.2828722000122 zm78.65880632400513,-134.28181936740876 c-19.47741870880127,23.410359025001526 -48.22533959150314,36.8947258234024 -78.65880632400513,36.8947258234024 s-59.18138761520386,-13.390725362300874 -78.65880632400513,-36.8947258234024 c-7.959522068500519,-9.551426482200622 -22.099378919601442,-10.768765151500702 -31.65080540180206,-2.9028845191001893 c-9.551426482200622,7.959522068500519 -10.768765151500702,22.099378919601442 -2.9028845191001893,31.65080540180206 c28.09243083000183,33.7109169960022 69.38830415010452,53.001052832603456 113.21249624490738,53.001052832603456 s85.12006541490555,-19.29013583660126 113.21249624490738,-53.001052832603456 c7.959522068500519,-9.551426482200622 6.648541963100433,-23.691283333301545 -2.9028845191001893,-31.65080540180206 c-9.551426482200622,-7.865880632400513 -23.691283333301545,-6.648541963100433 -31.65080540180206,2.9028845191001893 zM128.58979105949402,235.78443849086761 c7.21039057970047,-12.828876745700835 17.97915573120117,-20.22655019760132 29.497052371501923,-20.22655019760132 s22.286661791801453,7.3976734519004825 29.497052371501923,20.22655019760132 l8.89593642950058,15.919044137001038 c1.9664701581001283,3.464733135700226 5.8057690382003795,4.401147496700287 8.708653557300568,3.464733135700226 c3.3710916996002203,-1.0300557971000672 5.618486166000366,-4.213864624500275 5.337561857700348,-7.772239196300507 c-3.0901673913002012,-39.42304459810257 -30.152542424201968,-66.85998537540436 -52.43920421600342,-66.85998537540436 s-49.34903682470322,27.43694077730179 -52.43920421600342,66.85998537540436 c-0.2809243083000184,3.464733135700226 1.9664701581001283,6.74218339920044 5.337561857700348,7.772239196300507 c3.1838088274002074,1.0300557971000672 6.929466271400452,-0.46820718050003046 8.708653557300568,-3.464733135700226 l8.89593642950058,-15.919044137001038 zM307.9131411910057,180.535991191864 c-22.286661791801453,0 -49.34903682470322,27.43694077730179 -52.43920421600342,66.85998537540436 c-0.2809243083000184,3.464733135700226 1.9664701581001283,6.74218339920044 5.337561857700348,7.772239196300507 c3.2774502635002136,1.0300557971000672 6.929466271400452,-0.46820718050003046 8.708653557300568,-3.464733135700226 l8.89593642950058,-15.919044137001038 c7.21039057970047,-12.828876745700835 17.97915573120117,-20.22655019760132 29.497052371501923,-20.22655019760132 s22.286661791801453,7.3976734519004825 29.497052371501923,20.22655019760132 l8.89593642950058,15.919044137001038 c1.9664701581001283,3.464733135700226 5.8057690382003795,4.401147496700287 8.708653557300568,3.464733135700226 c3.3710916996002203,-1.0300557971000672 5.618486166000366,-4.213864624500275 5.337561857700348,-7.772239196300507 c-3.0901673913002012,-39.42304459810257 -30.152542424201968,-66.85998537540436 -52.43920421600342,-66.85998537540436 z" id="svg_1" class=""/><path fill="#ffffff" stroke-dashoffset="" fill-rule="nonzero" marker-start="" marker-mid="" marker-end="" id="svg_2" d="M313.81009646919944,70.18538925743283 L380.61595976266796,70.18538925743283 L401.25948558189316,6.720098497162327 L421.90302313929504,70.18538925743283 L488.70887469458603,70.18538925743283 L434.6618948799214,109.40864705100549 L455.3064888728951,172.87393781127582 L401.25948558189316,133.64961184395702 L347.2124940290588,172.87393781127582 L367.85709389112066,109.40864705100549 L313.81009646919944,70.18538925743283 z" style="color: rgb(0, 0, 0);" class="" stroke="#000000" stroke-opacity="1" fill-opacity="1" stroke-width="4"/></g></svg>