<svg xmlns="http://www.w3.org/2000/svg" viewBox="0 0 496 512">
    <path d="M236.46153354644775,37.23077917098999 C105.83560574054718,37.23077917098999 0,143.06638491153717 0,273.69231271743774 s105.83560574054718,236.46153354644775 236.46153354644775,236.46153354644775 s236.46153354644775,-105.83560574054718 236.46153354644775,-236.46153354644775 S367.0874613523483,37.23077917098999 236.46153354644775,37.23077917098999 zm134.82121307849886,371.2827466249466 c-36.04131438732147,36.04131438732147 -83.90570545196533,55.87357203960419 -134.82121307849886,55.87357203960419 s-98.77989869117737,-19.832257652282717 -134.82121307849886,-55.87357203960419 C65.59900608062743,372.4722114086151 45.766748428344734,324.60782034397124 45.766748428344734,273.69231271743774 s19.832257652282717,-98.77989869117737 55.87357203960419,-134.82121307849886 C137.6816348552704,102.82978525161742 185.54602591991423,82.99752759933472 236.46153354644775,82.99752759933472 s98.77989869117737,19.832257652282717 134.82121307849886,55.87357203960419 c36.04131438732147,36.04131438732147 55.87357203960419,83.90570545196533 55.87357203960419,134.82121307849886 s-19.832257652282717,98.77989869117737 -55.87357203960419,134.82121307849886 zM312.73944759368896,185.97271156311035 c-24.504279887676237,0 -53.29919244050979,16.113709342479705 -57.11308814287185,40.14125226736069 c-1.6209056735038763,10.678907966613771 10.964950144290924,17.353225445747373 18.878783726692202,10.297518396377564 l9.058002293109894,-8.104528367519379 c14.111414098739624,-12.5858558177948 44.0504953622818,-12.5858558177948 58.16190946102142,0 l9.058002293109894,8.104528367519379 c8.104528367519379,7.055707049369812 20.595036792755128,0.2860421776771546 18.878783726692202,-10.297518396377564 c-3.6232009172439574,-24.02754292488098 -32.418113470077515,-40.14125226736069 -56.922393357753755,-40.14125226736069 zm-152.55582809448242,57.20843553543091 c16.876488482952116,0 30.511165618896484,-13.634677135944367 30.511165618896484,-30.511165618896484 s-13.634677135944367,-30.511165618896484 -30.511165618896484,-30.511165618896484 s-30.511165618896484,13.634677135944367 -30.511165618896484,30.511165618896484 s13.634677135944367,30.511165618896484 30.511165618896484,30.511165618896484 zm185.35533113479616,61.02233123779297 H127.38411645889282 c-7.818486189842224,0 -13.82537192106247,6.674317479133606 -12.871897995471954,14.302108883857727 c7.1510544419288635,56.4456563949585 56.15961421728134,100.11476218700409 115.46569238901138,100.11476218700409 h12.967245388031005 c59.30607817173004,0 108.31463794708252,-43.66910579204559 115.46569238901138,-100.11476218700409 c0.9534739255905151,-7.627791404724121 -5.05341180562973,-14.302108883857727 -12.871897995471954,-14.302108883857727 z"/>
    <path fill="#ffffff"
          d="M328.2011517285404,64.80072396515902 L389.9038020692335,64.80072396515902 L408.9703958175663,5.977789697623576 L428.037000407396,64.80072396515902 L489.73963990661116,64.80072396515902 L439.8212385407404,101.1548805019205 L458.8888188664322,159.9778147694557 L408.9703958175663,123.62266819367792 L359.0519836102107,159.9778147694557 L378.1195693566404,101.1548805019205 L328.2011517285404,64.80072396515902 z"
          stroke="#000000"
          stroke-width="4"/>
</svg>
