<svg xmlns="http://www.w3.org/2000/svg" viewBox="0 0 496 512">
        <path d="M234.53846108913422,47.230770111083984 C105.82475167512894,47.230770111083984 1.5384615659713745,151.51706022024155 1.5384615659713745,280.2307696342468 s104.28629010915756,232.99999952316284 232.99999952316284,232.99999952316284 s232.99999952316284,-104.28629010915756 232.99999952316284,-232.99999952316284 S363.2521705031395,47.230770111083984 234.53846108913422,47.230770111083984 zm0,420.90322494506836 c-103.62862882018091,0 -187.90322542190552,-84.27459660172462 -187.90322542190552,-187.90322542190552 S130.90983226895332,92.32754421234131 234.53846108913422,92.32754421234131 s187.90322542190552,84.27459660172462 187.90322542190552,187.90322542190552 s-84.27459660172462,187.90322542190552 -187.90322542190552,187.90322542190552 zm99.21290302276611,-142.24274164438248 c-24.333467692136765,7.79798385500908 -60.504838585853584,12.307661265134811 -99.21290302276611,12.307661265134811 s-74.7854837179184,-4.509677410125732 -99.21290302276611,-12.307661265134811 c-9.20725804567337,-2.9124999940395355 -18.226612865924835,4.979435473680496 -16.62943544983864,14.374596744775772 c7.422177404165268,44.3451611995697 66.98749986290932,75.1612901687622 115.84233847260475,75.1612901687622 s108.32620945572853,-30.910080581903458 115.84233847260475,-75.1612901687622 c1.5032258033752441,-9.20725804567337 -7.234274178743362,-17.287096738815308 -16.62943544983864,-14.374596744775772 zm-214.11572536826134,-54.022177308797836 c-0.9395161271095275,5.824999988079071 5.073387086391449,10.334677398204803 10.334677398204803,7.422177404165268 l29.406854778528214,-15.3141128718853 l29.406854778528214,15.3141128718853 c5.2612903118133545,2.9124999940395355 11.274193525314331,-1.5971774160861973 10.334677398204803,-7.422177404165268 l-5.6370967626571655,-32.78911283612251 l23.863709628582,-23.11209672689438 c4.227822571992874,-4.227822571992874 1.7850806415081024,-11.462096750736237 -4.039919346570969,-12.401612877845764 l-32.78911283612251,-4.697580635547638 l-14.562499970197678,-29.688709616661072 c-2.72459676861763,-5.44919353723526 -10.334677398204803,-5.44919353723526 -13.059274166822433,0 l-14.562499970197678,29.688709616661072 l-32.78911283612251,4.697580635547638 c-5.824999988079071,0.8455645143985749 -8.361693531274796,8.079838693141937 -4.039919346570969,12.401612877845764 l23.863709628582,23.11209672689438 l-5.731048375368118,32.78911283612251 zm243.99233821034431,-68.30282244086266 l-32.78911283612251,-4.697580635547638 l-14.562499970197678,-29.688709616661072 c-2.72459676861763,-5.44919353723526 -10.334677398204803,-5.44919353723526 -13.059274166822433,0 l-14.562499970197678,29.688709616661072 l-32.78911283612251,4.697580635547638 c-5.824999988079071,0.8455645143985749 -8.361693531274796,8.079838693141937 -4.039919346570969,12.401612877845764 l23.863709628582,23.11209672689438 l-5.6370967626571655,32.78911283612251 c-0.9395161271095275,5.824999988079071 5.073387086391449,10.334677398204803 10.334677398204803,7.422177404165268 l29.406854778528214,-15.3141128718853 l29.406854778528214,15.3141128718853 c5.2612903118133545,2.9124999940395355 11.274193525314331,-1.5971774160861973 10.334677398204803,-7.422177404165268 l-5.6370967626571655,-32.78911283612251 l23.863709628582,-23.11209672689438 c4.227822571992874,-4.321774184703827 1.6911290287971497,-11.462096750736237 -4.133870959281921,-12.401612877845764 z"
        />
        <path fill="#ffffff" stroke="#000000" stroke-width="4"
              d="M415.9111738903419,70.78364204857527 L481.7273405121044,70.78364204857527 L502.06504244421,8.258558987707366 L522.4027559405871,70.78364204857527 L588.2189109980732,70.78364204857527 L534.9726111447352,109.42582617918367 L555.3113654261026,171.95090924005143 L502.06504244421,133.30767276017605 L448.8187310265952,171.95090924005143 L469.1574910900981,109.42582617918367 L415.9111738903419,70.78364204857527 z"
              transform="translate(-98.46154022216797,-2.307692289352417) "/>
</svg>
