<svg xmlns="http://www.w3.org/2000/svg" viewBox="0 0 24 24">
        <path d="M14.424 10.633h.002a.586.586 0 0 0 .57-.717l-.405-2.364 1.74-1.697a.586.586 0 0 0-.324-.999l-2.406-.35-1.075-2.18a.586.586 0 0 0-1.051 0l-1.076 2.18-2.406.35a.586.586 0 0 0-.325 1L9.41 7.551 9 9.948a.586.586 0 0 0 .85.618L12 9.435l2.152 1.13c.085.046.179.068.272.068zM8.766 12.817l1.603 2.234c.487.658.731 1.403.731 2.235v3.25a.46.46 0 0 1-.127.333.43.43 0 0 1-.323.131H6.937a.464.464 0 0 1-.267-.087.373.373 0 0 1-.154-.261 1.641 1.641 0 0 0-.282-.61L3.31 16.125a1.333 1.333 0 0 1-.309-.87V8.928c0-.252.09-.47.267-.653A.852.852 0 0 1 3.9 8c.244 0 .455.092.633.276a.907.907 0 0 1 .267.653v4.294l2.531 3.134a.35.35 0 0 0 .31.174.453.453 0 0 0 .337-.145l.366-.377a.456.456 0 0 0 .126-.29.42.42 0 0 0-.07-.29l-1.069-1.48a.983.983 0 0 1-.183-.697.852.852 0 0 1 .352-.61.86.86 0 0 1 .675-.173.9.9 0 0 1 .59.348zM20.1 8c.244 0 .455.092.633.276a.907.907 0 0 1 .267.653v6.325c0 .33-.094.62-.281.871l-2.953 3.917a1.641 1.641 0 0 0-.282.61.373.373 0 0 1-.154.26.464.464 0 0 1-.267.088H13.35a.43.43 0 0 1-.323-.13.46.46 0 0 1-.127-.334v-3.25c0-.832.244-1.577.731-2.235l1.603-2.234a.9.9 0 0 1 .591-.348.86.86 0 0 1 .675.174.852.852 0 0 1 .352.61.983.983 0 0 1-.183.696l-1.069 1.48a.42.42 0 0 0-.07.29c.01.116.051.213.126.29l.366.377a.453.453 0 0 0 .337.145.35.35 0 0 0 .31-.174l2.531-3.134V8.93c0-.252.09-.47.267-.653A.852.852 0 0 1 20.1 8z"/>
</svg>
