<svg xmlns="http://www.w3.org/2000/svg" viewBox="0 0 24 24">
    <path  d="M18.496 9.993l-1.726-2.44 1.229-.924 1.915 1.473-1.418 1.891zM12 18.663L7.248 12.32h9.505L12 18.662zM5.999 6.631l1.59.957-1.827 2.748-1.676-2.235L6 6.632zm3.283 1.56l5.836.048 1.639 2.316H7.71l1.57-2.363zm-.854-3.428h7.144l.984.756-1.274.957-6.218-.05-1.57-.945.934-.718zm13.228 2.465l-3.012-2.316a.852.852 0 0 0-.228-.174l-2.03-1.56A.861.861 0 0 0 15.864 3H8.137a.86.86 0 0 0-.524.178L2.344 7.23a.891.891 0 0 0-.167 1.238l9.132 12.185a.86.86 0 0 0 1.382 0l9.132-12.185a.891.891 0 0 0-.167-1.238z"/>
</svg>
