<svg xmlns="http://www.w3.org/2000/svg" viewBox="0 0 24 24">
    <g fill="none">
        <path fill="#FFF" d="M14.22 7.742c-.822-.284-1.06-.456-1.06-.766 0-.248.218-.537.833-.537.545 0 .962.184.966.186.044.02.093.03.142.03a.29.29 0 0 0 .268-.157l.15-.33c.052-.12-.027-.224-.128-.261-.335-.126-.99-.223-.997-.224-.01-.001-.047-.008-.047-.045l-.002-.477c0-.144-.14-.261-.31-.261h-.269c-.171 0-.31.117-.31.26v.503c0 .038-.048.055-.066.058-.826.17-1.343.691-1.343 1.348 0 .82.787 1.19 1.637 1.468.68.23.956.463.956.804 0 .372-.392.631-.954.631-.48 0-1.13-.262-1.137-.264a.345.345 0 0 0-.13-.026.292.292 0 0 0-.275.164L12 10.18c-.05.124.027.225.127.27.4.179 1.172.284 1.206.288.01.002.056.016.056.053v.5c0 .143.14.26.311.26h.277c.172 0 .311-.117.311-.26v-.526c0-.05.042-.054.05-.056.881-.17 1.424-.725 1.424-1.421 0-.715-.462-1.178-1.543-1.545z"/>
        <path stroke="#FFF" stroke-width="1.425" d="M13.917 13.45c-2.87 0-5.195-2.34-5.195-5.225C8.722 5.339 11.048 3 13.917 3s5.194 2.34 5.194 5.225c0 2.886-2.325 5.225-5.194 5.225z"/>
        <g fill="#FFF">
            <path d="M19.756 16.74a15.627 15.627 0 0 1-4.945 1.711c-1.61.257-4.639-.362-4.639-1.092 0-.277 2.657.682 4.264.247 1.232-.334 1.057-1.505.387-1.66-.666-.153-4.57-1.605-6.238-1.655-.786-.024-2.726.277-3.664.432-.322.054-.523.048-.543.36-.094 1.452-.278 4.421-.378 5.972-.002.033 1.343-.552 1.851-.435.798.184 7.7 1.468 8.652 1.243 1.362-.321 5.218-2.641 5.957-3.363 1.146-1.118.255-2.298-.704-1.76z"/>
        </g>
    </g>
</svg>
