<svg xmlns="http://www.w3.org/2000/svg" viewBox="0 0 24 24">
    <g transform="translate(4 2)">
        <ellipse cx="8.19" cy="5.147" rx="5.194" ry="5.147"/>
        <path d="M1.194 18.081a10.733 10.733 0 0 0 7.022 2.598c2.58.003 5.073-.92 7.019-2.598.48-.42.756-1.026.756-1.662 0-.636-.276-1.242-.756-1.663a10.53 10.53 0 0 0-5.423-2.439.752.752 0 0 0-.656.243.737.737 0 0 0-.166.674c.35 1.389.965 2.216 1.224 3.253a.886.886 0 0 1-.242.857l-.865.857a1.306 1.306 0 0 1-1.825 0l-.865-.857a.903.903 0 0 1-.246-.857l1.224-3.24a.737.737 0 0 0-.166-.674.752.752 0 0 0-.656-.243 10.53 10.53 0 0 0-5.414 2.434 2.211 2.211 0 0 0-.734 1.667c.007.633.286 1.234.769 1.65z"/>
    </g>
</svg>
