<svg xmlns="http://www.w3.org/2000/svg" viewBox="0 0 24 24">
    <path d="M20.451 12.599a3.367 3.367 0 0 0 .542-1.858c0-.782-.28-1.462-.84-2.04-.56-.577-1.224-.866-1.99-.866h-1.946c.354-.752.53-1.482.53-2.188 0-.889-.129-1.596-.386-2.12a2.468 2.468 0 0 0-1.128-1.157c-.494-.247-1.05-.37-1.67-.37-.376 0-.707.14-.995.422-.317.319-.545.73-.685 1.23-.14.502-.253.983-.337 1.442-.085.46-.216.785-.393.975-.361.402-.755.889-1.183 1.458-.744.996-1.25 1.584-1.515 1.767H5.426c-.39 0-.724.143-1 .427a1.428 1.428 0 0 0-.415 1.032v7.293c0 .403.138.747.415 1.032.276.285.61.427 1 .427H8.61c.162 0 .67.152 1.526.456.906.327 1.704.575 2.393.746.69.171 1.388.257 2.096.257H16.05c1.039 0 1.876-.306 2.51-.918.633-.611.947-1.445.94-2.501.442-.585.663-1.261.663-2.029 0-.167-.011-.33-.033-.49a3.351 3.351 0 0 0 .32-2.427zm-13.82 5.23a.67.67 0 0 1-.497.218.67.67 0 0 1-.498-.217.712.712 0 0 1-.21-.513c0-.198.07-.368.21-.513a.67.67 0 0 1 .498-.216.67.67 0 0 1 .497.216c.14.145.21.315.21.513s-.07.369-.21.513zm12.71-6.153c-.159.35-.356.528-.592.536.11.13.203.31.276.541.074.232.11.443.11.633 0 .524-.194.976-.585 1.356.133.243.199.505.199.786s-.064.56-.194.838c-.128.277-.304.476-.525.598.037.227.056.44.056.638 0 1.268-.708 1.903-2.123 1.903h-1.338c-.966 0-2.226-.277-3.781-.832a6.07 6.07 0 0 0-1.52-.519 4.87 4.87 0 0 0-.365-.074 2.164 2.164 0 0 0-.349-.034h-.353v-7.293h.353a.928.928 0 0 0 .393-.103c.144-.068.291-.17.442-.307.151-.137.293-.272.426-.405s.28-.3.442-.501a22.453 22.453 0 0 0 .73-.952l.254-.342c.405-.516.69-.862.851-1.037.303-.327.522-.742.658-1.248.137-.505.25-.982.337-1.43.089-.448.229-.771.42-.969.708 0 1.18.179 1.416.536.236.357.353.908.353 1.652 0 .449-.177 1.058-.53 1.83-.354.77-.53 1.376-.53 1.817h3.89c.37 0 .697.146.985.439.287.292.431.632.431 1.02 0 .266-.08.573-.238.923z"/>
</svg>
