<svg xmlns="http://www.w3.org/2000/svg"  viewBox="0 0 24 24">
        <path d="M20.854 5.628l-3.482-3.482a.5.5 0 0 0-.706 0L8.01 10.804a.5.5 0 0 0-.137.255l-.862 4.345a.5.5 0 0 0 .586.586l4.345-.862a.5.5 0 0 0 .255-.137l8.658-8.657a.5.5 0 0 0 0-.706zM8.335 13.852l.451-2.271 2.633 2.633-2.27.45-.814-.812z"/>
        <path stroke="#FFF" d="M16.81 19.041c-5.045-2.122-8.33 1.387-9.31 1.92-1.255.682-3.022 1.482-3.432.096-.248-.836 1.092-1.73 1.979-2.008.647-.203.37-1.227-.28-1.022-1.378.432-3.022 1.598-2.734 3.239.214 1.22 1.736 2.331 4.669.785 2.132-1.123 3.58-3.45 8.07-2.246 1.475.396 2.668 1.362 3.178 2.83.223.642 1.243.366 1.018-.28-.544-1.566-1.645-2.678-3.158-3.314z"/>
</svg>
