<?xml version="1.0" encoding="UTF-8"?>
<svg width="38px" height="24px" viewBox="0 0 38 24" version="1.1" xmlns="http://www.w3.org/2000/svg" xmlns:xlink="http://www.w3.org/1999/xlink">
    <!-- Generator: Sketch 56.1 (81669) - https://sketch.com -->
    <title>Group 4</title>
    <desc>Created with Sketch.</desc>
    <defs>
        <linearGradient x1="49.9212647%" y1="33.7696392%" x2="50.0778506%" y2="63.3397766%" id="linearGradient-1">
            <stop stop-color="#0062FF" offset="1.02041%"></stop>
            <stop stop-color="#0568FF" offset="3.659486%"></stop>
            <stop stop-color="#329AFF" offset="27.03%"></stop>
            <stop stop-color="#55C1FF" offset="49.1%"></stop>
            <stop stop-color="#6EDDFF" offset="69.27%"></stop>
            <stop stop-color="#7EEEFF" offset="86.88%"></stop>
            <stop stop-color="#83F4FF" offset="100%"></stop>
        </linearGradient>
        <linearGradient x1="50.0828145%" y1="67.6698571%" x2="49.9096887%" y2="35.280499%" id="linearGradient-2">
            <stop stop-color="#0062FF" offset="1.02041%"></stop>
            <stop stop-color="#0568FF" offset="3.659486%"></stop>
            <stop stop-color="#329AFF" offset="27.03%"></stop>
            <stop stop-color="#55C1FF" offset="49.1%"></stop>
            <stop stop-color="#6EDDFF" offset="69.27%"></stop>
            <stop stop-color="#7EEEFF" offset="86.88%"></stop>
            <stop stop-color="#83F4FF" offset="100%"></stop>
        </linearGradient>
        <linearGradient x1="51.025%" y1="58.965838%" x2="50.935%" y2="43.9494516%" id="linearGradient-3">
            <stop stop-color="#83F4FF" offset="0%"></stop>
            <stop stop-color="#7EEEFF" offset="13.12%"></stop>
            <stop stop-color="#6EDDFF" offset="30.73%"></stop>
            <stop stop-color="#55C1FF" offset="50.9%"></stop>
            <stop stop-color="#329AFF" offset="72.97%"></stop>
            <stop stop-color="#0568FF" offset="96.34%"></stop>
            <stop stop-color="#0062FF" offset="98.98%"></stop>
        </linearGradient>
        <linearGradient x1="48.49%" y1="65.8997067%" x2="48.4%" y2="43.5463549%" id="linearGradient-4">
            <stop stop-color="#83F4FF" offset="0%"></stop>
            <stop stop-color="#7EEEFF" offset="13.12%"></stop>
            <stop stop-color="#6EDDFF" offset="30.73%"></stop>
            <stop stop-color="#55C1FF" offset="50.9%"></stop>
            <stop stop-color="#329AFF" offset="72.97%"></stop>
            <stop stop-color="#0568FF" offset="96.34%"></stop>
            <stop stop-color="#0062FF" offset="98.98%"></stop>
        </linearGradient>
        <linearGradient x1="47.2705882%" y1="56.8637441%" x2="47.1882353%" y2="41.818232%" id="linearGradient-5">
            <stop stop-color="#83F4FF" offset="0%"></stop>
            <stop stop-color="#7EEEFF" offset="13.12%"></stop>
            <stop stop-color="#6EDDFF" offset="30.73%"></stop>
            <stop stop-color="#55C1FF" offset="50.9%"></stop>
            <stop stop-color="#329AFF" offset="72.97%"></stop>
            <stop stop-color="#0568FF" offset="96.34%"></stop>
            <stop stop-color="#0062FF" offset="98.98%"></stop>
        </linearGradient>
        <linearGradient x1="50.65%" y1="46.8498189%" x2="50.7158537%" y2="52.2988561%" id="linearGradient-6">
            <stop stop-color="#FF9100" offset="0%"></stop>
            <stop stop-color="#FFAF00" offset="24.75%"></stop>
            <stop stop-color="#FFCD00" offset="55.32%"></stop>
            <stop stop-color="#FFDF00" offset="81.49%"></stop>
            <stop stop-color="#FFE600" offset="100%"></stop>
        </linearGradient>
        <linearGradient x1="50.978%" y1="22.4834865%" x2="51.182%" y2="72.9891475%" id="linearGradient-7">
            <stop stop-color="#FFE600" offset="0%"></stop>
            <stop stop-color="#FFDF00" offset="18.51%"></stop>
            <stop stop-color="#FFCD00" offset="44.68%"></stop>
            <stop stop-color="#FFAF00" offset="75.25%"></stop>
            <stop stop-color="#FF9100" offset="100%"></stop>
        </linearGradient>
        <linearGradient x1="-0.0583513007%" y1="50.0159898%" x2="100.299702%" y2="50.0159898%" id="linearGradient-8">
            <stop stop-color="#83F4FF" offset="0%"></stop>
            <stop stop-color="#7EEEFF" offset="13.12%"></stop>
            <stop stop-color="#6EDDFF" offset="30.73%"></stop>
            <stop stop-color="#55C1FF" offset="50.9%"></stop>
            <stop stop-color="#329AFF" offset="72.97%"></stop>
            <stop stop-color="#0568FF" offset="96.34%"></stop>
            <stop stop-color="#0062FF" offset="98.98%"></stop>
        </linearGradient>
        <linearGradient x1="0.0797297297%" y1="50.0879271%" x2="100.012432%" y2="50.0879271%" id="linearGradient-9">
            <stop stop-color="#0062FF" offset="1.02041%"></stop>
            <stop stop-color="#0568FF" stop-opacity="0.9893" offset="3.646154%"></stop>
            <stop stop-color="#329AFF" stop-opacity="0.8949" offset="26.9%"></stop>
            <stop stop-color="#55C1FF" stop-opacity="0.8057" offset="48.85%"></stop>
            <stop stop-color="#6EDDFF" stop-opacity="0.7242" offset="68.92%"></stop>
            <stop stop-color="#7EEEFF" stop-opacity="0.653" offset="86.45%"></stop>
            <stop stop-color="#83F4FF" stop-opacity="0.6" offset="99.5%"></stop>
        </linearGradient>
        <linearGradient x1="0.047826087%" y1="50.0393868%" x2="99.9106832%" y2="50.0393868%" id="linearGradient-10">
            <stop stop-color="#83F4FF" stop-opacity="0.5" offset="0.5%"></stop>
            <stop stop-color="#7EEEFF" stop-opacity="0.5663" offset="13.55%"></stop>
            <stop stop-color="#6EDDFF" stop-opacity="0.6553" offset="31.08%"></stop>
            <stop stop-color="#55C1FF" stop-opacity="0.7571" offset="51.15%"></stop>
            <stop stop-color="#329AFF" stop-opacity="0.8686" offset="73.1%"></stop>
            <stop stop-color="#0568FF" stop-opacity="0.9867" offset="96.35%"></stop>
            <stop stop-color="#0062FF" offset="98.98%"></stop>
        </linearGradient>
        <linearGradient x1="50.3819909%" y1="99.9000846%" x2="50.3819909%" y2="-0.24896006%" id="linearGradient-11">
            <stop stop-color="#83F4FF" offset="0%"></stop>
            <stop stop-color="#7EEEFF" offset="8.478352%"></stop>
            <stop stop-color="#6EDDFF" offset="19.87%"></stop>
            <stop stop-color="#55C1FF" offset="32.9%"></stop>
            <stop stop-color="#329AFF" offset="47.17%"></stop>
            <stop stop-color="#0568FF" offset="62.27%"></stop>
            <stop stop-color="#0062FF" offset="63.98%"></stop>
            <stop stop-color="#83F4FF" offset="100%"></stop>
        </linearGradient>
        <linearGradient x1="49.6954194%" y1="9.81786314%" x2="50.6124069%" y2="83.4247705%" id="linearGradient-12">
            <stop stop-color="#83F4FF" offset="0%"></stop>
            <stop stop-color="#7EEEFF" offset="13.12%"></stop>
            <stop stop-color="#6EDDFF" offset="30.73%"></stop>
            <stop stop-color="#55C1FF" offset="50.9%"></stop>
            <stop stop-color="#329AFF" offset="72.97%"></stop>
            <stop stop-color="#0568FF" offset="96.34%"></stop>
            <stop stop-color="#0062FF" offset="98.98%"></stop>
        </linearGradient>
    </defs>
    <g id="Symbols" stroke="none" stroke-width="1" fill="none" fill-rule="evenodd">
        <g id="Group-4">
            <g id="Group" fill-rule="nonzero">
                <path d="M37.4282522,11.8014085 C37.4282522,12.3559859 37.3099582,12.8772887 37.0841241,13.3431338 C36.933568,13.5871479 36.7722579,13.831162 36.6109479,14.0751761 C36.2883277,14.5632042 35.9441996,15.0290493 35.5893174,15.4838028 C35.1484032,16.0494718 34.664473,16.5929577 34.1590348,17.1142606 C32.244822,19.1107394 30.007989,20.6857394 27.5238139,21.7948944 C27.4807979,21.8170775 27.4485359,21.828169 27.4055198,21.8503521 C26.8248036,22.1054577 26.2333333,22.3383803 25.6311091,22.5380282 C25.545077,22.5713028 25.459045,22.5934859 25.373013,22.6267606 L25.373013,22.6267606 C25.2332109,22.6711268 25.0934088,22.715493 24.9643608,22.7487676 C24.6847567,22.8264085 24.4051525,22.9040493 24.1255484,22.9816901 C24.1255484,22.9816901 24.1255484,22.9816901 24.1255484,22.9816901 C24.0395164,23.0038732 23.9534843,23.0260563 23.8674523,23.0482394 C23.254474,23.1924296 22.6199878,23.3144366 21.9962555,23.403169 C21.8564534,23.4253521 21.7274054,23.4475352 21.5876033,23.4586268 C21.4370472,23.4808099 21.2972452,23.4919014 21.1466891,23.502993 C21.0068871,23.5140845 20.867085,23.5251761 20.7272829,23.5473592 C20.1895827,23.5917254 19.6518825,23.6139085 19.1141822,23.6139085 C18.576482,23.6139085 18.0387818,23.6028169 17.5010815,23.5584507 C15.1889705,23.3920775 12.9413835,22.8375 10.8013366,21.9169014 C8.63978165,20.9852113 6.6717988,19.7096831 4.91889603,18.1125 C4.81135598,18.0126761 4.70381594,17.9128521 4.60702989,17.8130282 C4.76833997,17.9572183 4.94040404,18.0903169 5.11246812,18.234507 C6.38144067,19.2549296 7.84398531,20.0757042 9.46784002,20.6191901 C12.6725334,21.706162 16.0277829,21.5619718 18.9528722,20.4417254 C18.9528722,20.4417254 18.9636262,20.4417254 18.9743802,20.4417254 C19.2754923,20.3308099 19.6088664,20.1977113 19.9637486,20.031338 C20.791807,19.6320423 21.7811754,18.9998239 22.6952658,18.0903169 C23.3835221,17.4137324 23.2974901,17.4580986 23.5878482,17.103169 C24.3298745,16.1714789 25.0826548,14.8072183 25.394521,13.609331 C25.426783,13.4873239 25.459045,13.3653169 25.480553,13.2322183 C25.566585,12.7774648 25.6203551,12.3116197 25.6096011,11.8346831 C25.6096011,11.1026408 25.491307,10.4038732 25.2869809,9.74947183 C25.2869809,9.74947183 25.2869809,9.74947183 25.2869809,9.73838028 C24.4481686,6.96549296 21.9639935,5.09102113 19.0389042,5.10211268 C18.3614019,5.10211268 17.7054076,5.21302817 17.1031833,5.41267606 C16.9418733,5.45704225 16.8020712,5.5125 16.6515152,5.5790493 C16.5547291,5.62341549 16.4579431,5.66778169 16.361157,5.71214789 C16.1245689,5.82306338 15.8879808,5.95616197 15.6621467,6.08926056 C15.5761147,6.14471831 15.4900826,6.20017606 15.3932966,6.26672535 C15.3502806,6.3 15.3072646,6.3221831 15.2642485,6.35545775 C15.1782165,6.42200704 15.0921845,6.48855634 15.0169064,6.55510563 C14.9523824,6.61056338 14.8771044,6.66602113 14.8125803,6.73257042 L14.8125803,6.73257042 C18.4689419,3.32746479 23.9319763,1.80792254 29.0293746,3.53820423 C31.2016835,4.27024648 33.0836343,5.47922535 34.610703,7.00985915 C34.9440771,7.37588028 35.2666973,7.75299296 35.5785634,8.14119718 C35.9872156,8.65140845 36.3743598,9.18380282 36.7399959,9.73838028 C36.826028,9.86038732 36.91206,9.99348592 36.987338,10.115493 C37.2669421,10.581338 37.4282522,11.1691901 37.4282522,11.8014085 Z M32.309346,12.7109155 C32.438394,12.4336268 32.5136721,12.1230634 32.5136721,11.8014085 C32.5136721,11.4353873 32.416886,11.0915493 32.244822,10.7920775 C32.2125599,10.7366197 32.1802979,10.681162 32.1480359,10.6367958 C32.1480359,10.6257042 32.1372819,10.6146127 32.1265279,10.6146127 C32.1265279,10.6146127 32.1265279,10.6146127 32.1265279,10.6146127 C32.1157739,10.6035211 32.1157739,10.5924296 32.1050199,10.581338 C32.0835119,10.5591549 32.0727579,10.5369718 32.0512499,10.5147887 C32.0404959,10.4926056 32.0189879,10.4815141 32.0082339,10.459331 C31.9974798,10.4482394 31.9867258,10.4371479 31.9759718,10.4260563 C31.9759718,10.4149648 31.9652178,10.4038732 31.9544638,10.4038732 C31.9437098,10.3927817 31.9329558,10.3816901 31.9222018,10.3705986 C31.9222018,10.3705986 31.9222018,10.3705986 31.9222018,10.359507 C31.9222018,10.359507 31.9222018,10.359507 31.9222018,10.359507 C31.6856137,10.0933099 31.4490256,9.82711268 31.2016835,9.57200704 C30.6209672,8.97306338 30.007989,8.42957746 29.3627487,7.93045775 C29.2659627,7.8528169 29.1369146,7.93045775 29.1799306,8.05246479 C29.4057647,8.6846831 29.5778288,9.35017606 29.6853688,10.0378521 C29.7176309,10.2596831 29.7498929,10.4926056 29.7714009,10.7255282 C29.8036629,11.0915493 29.8251709,11.4575704 29.8251709,11.8346831 C29.8251709,12.2117958 29.8036629,12.6 29.7714009,12.9660211 C29.7498929,13.1878521 29.7176309,13.4096831 29.6853688,13.6204225 C29.5885828,14.2637324 29.4380267,14.8848592 29.2337006,15.4838028 C29.1799306,15.6501761 29.3304867,15.7610915 29.4487807,15.6612676 C30.061759,15.1732394 30.6532293,14.6408451 31.2016835,14.0640845 C31.4382716,13.8200704 31.6748597,13.5649648 31.8899398,13.2987676 L31.8899398,13.2987676 C31.9114478,13.2765845 31.9329558,13.2544014 31.9652178,13.2211268 C31.9652178,13.2211268 31.9652178,13.2211268 31.9652178,13.2211268 C31.9867258,13.1989437 32.0082339,13.165669 32.0297419,13.1434859 C32.0512499,13.1213028 32.0727579,13.0880282 32.0942659,13.0658451 C32.1157739,13.043662 32.1372819,13.0103873 32.1587899,12.9882042 C32.1695439,12.9771127 32.1695439,12.9771127 32.1802979,12.9660211 C32.2233139,12.8772887 32.26633,12.7885563 32.309346,12.7109155 Z" id="Shape" fill="url(#linearGradient-1)"></path>
                <path d="M34.1375268,6.47746479 C34.2988369,6.64383803 34.4601469,6.81021127 34.610703,6.97658451 C33.0836343,5.4459507 31.2016835,4.23697183 29.0293746,3.50492958 C23.9319763,1.77464789 18.4689419,3.29419014 14.8125803,6.69929577 L14.8125803,6.69929577 C14.7588103,6.74366197 14.7050403,6.78802817 14.6512703,6.84348592 C14.5759922,6.92112676 14.5007142,6.98767606 14.4254362,7.0653169 C13.2424957,8.28538732 12.5219773,9.97130282 12.5327314,11.8346831 C12.5434854,13.7091549 13.2855117,15.3950704 14.4899602,16.6151408 C14.5544842,16.6816901 14.6297623,16.7482394 14.6942863,16.8147887 C14.7265483,16.8480634 14.7695643,16.881338 14.8018263,16.9146127 C14.8878584,16.9922535 14.9631364,17.0588028 15.0491685,17.1253521 C15.1029385,17.1697183 15.1674625,17.2140845 15.2212325,17.2584507 C15.2750026,17.3028169 15.3395266,17.3471831 15.4040506,17.3804577 C15.4363126,17.4026408 15.4685746,17.4248239 15.4900826,17.4359155 C15.5008366,17.447007 15.5115907,17.447007 15.5223447,17.447007 C15.5330987,17.4580986 16.1138149,17.8019366 16.1245689,17.8130282 C16.1675849,17.8352113 16.199847,17.8573944 16.242863,17.8795775 C16.328895,17.9239437 16.414927,17.9683099 16.5117131,18.0015845 C16.5332211,18.0126761 16.5547291,18.0237676 16.5869911,18.0348592 C16.6730232,18.0681338 16.7698092,18.1125 16.8558412,18.1457746 C16.8773493,18.1457746 16.8881033,18.1568662 16.9096113,18.1679577 C16.9311193,18.1679577 16.9418733,18.1790493 16.9633813,18.1901408 C17.1461994,18.2566901 17.3290174,18.3121479 17.5118355,18.3565141 C17.6838996,18.4008803 17.7591776,18.6338028 17.9419957,18.6559859 C17.9850117,18.6559859 17.9742577,18.7225352 18.0280278,18.9776408 C18.0602898,19.1329225 18.1355678,19.1551056 18.1140598,19.1994718 C18.0710438,19.2992958 18.1355678,19.3214789 18.0817978,19.4213028 C17.8344557,19.8427817 17.5225895,20.2642606 17.4365575,20.3862676 C17.3720335,20.4860915 17.2967554,20.5748239 17.2537394,20.6413732 C17.1677074,20.7633803 17.2537394,20.918662 17.3827875,20.8853873 C17.5225895,20.8521127 17.6731456,20.818838 17.8452097,20.7633803 C17.6193756,20.8299296 17.5548515,20.8853873 17.3290174,20.9408451 C17.3290174,20.9408451 17.1999694,20.9741197 17.1999694,20.9741197 C15.6621467,21.3290493 13.984522,21.4399648 12.3606673,21.2514085 C12.2316192,21.2403169 12.1025712,21.2181338 11.9735231,21.1959507 C11.822967,21.1737676 11.672411,21.1515845 11.5326089,21.1294014 C11.4788389,21.1183099 11.4143149,21.1072183 11.3605448,21.0961268 C11.2207428,21.0739437 11.0809407,21.040669 10.9411387,21.0073944 C10.4464544,20.8964789 9.8980002,20.7301056 9.41406999,20.5637324 C7.80096929,20.0202465 6.41370268,19.2216549 5.14473013,18.2123239 C4.96191205,18.0681338 4.78984797,17.9239437 4.60702989,17.768662 C4.42421182,17.5911972 4.23063973,17.4026408 4.04782165,17.2140845 C3.54238343,16.7038732 3.05845322,16.1492958 2.60678502,15.5947183 C2.45622896,15.406162 2.30567289,15.2065141 2.15511682,15.0179577 C2.15511682,15.0179577 2.15511682,15.0179577 2.15511682,15.0179577 C1.90777472,14.6852113 1.67118661,14.3524648 1.44535252,14.0086268 C1.35932048,13.8755282 1.27328844,13.7535211 1.19801041,13.6204225 C0.918406285,13.1213028 0.757096215,12.5334507 0.757096215,11.9012324 C0.757096215,11.3466549 0.875390266,10.8253521 1.10122436,10.359507 C1.25178043,10.115493 1.4130905,9.87147887 1.57440057,9.62746479 C1.89702071,9.13943662 2.23039486,8.67359155 2.59603102,8.21883803 C3.03694521,7.65316901 3.52087542,7.1096831 4.02631364,6.58838028 C5.97278849,4.55862676 8.25263749,2.97253521 10.7798286,1.85228873 C11.8444751,1.38644366 12.9413835,0.998239437 14.0598,0.720950704 C14.0598,0.720950704 14.0598,0.720950704 14.0598,0.720950704 C14.1458321,0.698767606 14.2318641,0.676584507 14.3178961,0.654401408 C14.5759922,0.587852113 14.8340884,0.532394366 15.0921845,0.488028169 C15.2642485,0.454753521 15.4363126,0.421478873 15.6083767,0.388204225 C15.6083767,0.388204225 15.6083767,0.388204225 15.6083767,0.388204225 C16.0170289,0.32165493 16.414927,0.266197183 16.8235792,0.221830986 C16.8881033,0.210739437 16.9526273,0.210739437 17.0279053,0.199647887 C17.1677074,0.188556338 17.3075094,0.177464789 17.4473115,0.15528169 C17.9850117,0.110915493 18.522712,0.0887323944 19.0604122,0.0887323944 C19.5981124,0.0887323944 20.1358127,0.0998239437 20.6627589,0.144190141 C21.0283951,0.166373239 21.3832772,0.210739437 21.7381594,0.255105634 C21.8779614,0.277288732 22.0177635,0.288380282 22.1683196,0.31056338 C22.3833997,0.343838028 22.5984797,0.377112676 22.8135598,0.421478873 C23.0071319,0.454753521 23.200704,0.488028169 23.3942761,0.532394366 C24.7492807,0.820774648 26.0720233,1.23116197 27.3625038,1.79683099 C29.8896949,2.89489437 32.1695439,4.46989437 34.1375268,6.47746479 Z M19.9422406,0.800266699 C19.6518825,0.77756817 19.3615243,0.766218905 19.0604122,0.766218905 C19.0496582,0.766218905 19.0389042,0.766218905 19.0389042,0.77756817 C19.3292623,0.766218905 19.6303745,0.77756817 19.9422406,0.800266699 Z M8.89787777,15.8387324 C8.9731558,15.8941901 9.04843383,15.8387324 9.01617182,15.75 C8.57525763,14.5521127 8.33866952,13.2433099 8.32791552,11.8901408 C8.32791552,10.5924296 8.53224161,9.35017606 8.93013978,8.19665493 C8.9731558,8.05246479 8.87636976,7.93045775 8.77958372,8.01919014 C8.14509744,8.51830986 7.54287318,9.06179577 6.98366493,9.64964789 C6.74707683,9.89366197 6.51048873,10.1487676 6.28465463,10.4149648 C6.2308846,10.459331 6.18786858,10.5147887 6.14485257,10.5702465 C6.10183655,10.6257042 6.05882053,10.681162 6.02655851,10.7366197 C6.02655851,10.7477113 6.01580451,10.7477113 6.00505051,10.7588028 C5.95128048,10.8364437 5.90826446,10.9251761 5.86524844,11.0028169 C5.73620039,11.2801056 5.66092235,11.590669 5.66092235,11.9123239 C5.66092235,12.2783451 5.7577084,12.6332746 5.92977247,12.9216549 C5.96203449,12.9771127 5.9942965,13.0325704 6.02655851,13.0769366 C6.03731252,13.0880282 6.03731252,13.0991197 6.04806652,13.1102113 C6.04806652,13.1102113 6.04806652,13.1102113 6.04806652,13.1102113 C6.05882053,13.1213028 6.05882053,13.1323944 6.06957453,13.1434859 C6.13409856,13.2211268 6.19862259,13.2987676 6.26314662,13.3653169 C6.49973472,13.6315141 6.73632282,13.8977113 6.98366493,14.1528169 C7.58588919,14.7628521 8.23112948,15.3285211 8.89787777,15.8387324 Z" id="Shape" fill="url(#linearGradient-2)"></path>
                <path d="M18.641006,20.4975697 C18.608744,20.5089189 18.587236,20.5202682 18.554974,20.5316175 C18.511958,20.5429667 18.4689419,20.5656653 18.4259259,20.5770145 C18.501204,20.554316 18.576482,20.5316175 18.641006,20.4975697 Z" id="Path" fill="url(#linearGradient-3)"></path>
                <path d="M18.1306053,20.6756787 C18.107878,20.687028 18.0737871,20.6983773 18.0510598,20.6983773 C18.0396962,20.6983773 18.0396962,20.6983773 18.0283326,20.6983773 C18.0624235,20.6983773 18.0965144,20.687028 18.1306053,20.6756787 Z" id="Path" fill="url(#linearGradient-4)"></path>
                <path d="M18.0280278,20.7085668 C17.9635037,20.7312654 17.8989797,20.7426146 17.8452097,20.7653131 C17.8989797,20.7426146 17.9635037,20.7199161 18.0280278,20.7085668 Z" id="Path" fill="url(#linearGradient-5)"></path>
                <path d="M17.8344557,20.7633803 C17.8989797,20.7522887 17.9527497,20.7301056 18.0172737,20.7079225 C17.7269156,20.7966549 17.4258035,20.8742958 17.1354454,20.9519366 C17.3720335,20.8853873 17.6086216,20.8299296 17.8344557,20.7633803 Z" id="Path" fill="url(#linearGradient-6)"></path>
                <path d="M5.12322212,18.2123239 C4.95115805,18.0792254 4.77909397,17.9350352 4.6177839,17.7908451 C4.60702989,17.7797535 4.59627589,17.768662 4.58552189,17.768662 C4.76833997,17.9239437 4.94040404,18.0681338 5.12322212,18.2123239 Z" id="Path" fill="url(#linearGradient-7)"></path>
                <path d="M25.3515049,9.72728873 C25.3515049,9.71619718 25.362259,9.70510563 25.3515049,9.69401408 C24.4589226,6.91003521 21.9532395,5.04665493 19.1034282,5.04665493 C19.0926742,5.04665493 19.0926742,5.04665493 19.0819202,5.04665493 C18.4151719,5.04665493 17.7591776,5.15757042 17.1246914,5.35721831 C16.9848893,5.40158451 16.8343332,5.45704225 16.6622692,5.52359155 L16.5977451,5.5568662 C16.5224671,5.59014085 16.4471891,5.62341549 16.371911,5.65669014 C16.1245689,5.77869718 15.8879808,5.90070423 15.6729007,6.04489437 C15.5868687,6.10035211 15.4900826,6.16690141 15.4040506,6.22235915 L15.3502806,6.2556338 C15.3287726,6.2778169 15.2965106,6.28890845 15.2750026,6.31109155 C15.1889705,6.37764085 15.1029385,6.44419014 15.0276604,6.51073944 L14.9523824,6.57728873 C14.9308744,6.59947183 14.9308744,6.63274648 14.9416284,6.65492958 C14.9631364,6.67711268 14.9953984,6.67711268 15.0169064,6.66602113 L15.0921845,6.59947183 C15.1782165,6.53292254 15.2534945,6.46637324 15.3395266,6.41091549 C15.3610346,6.38873239 15.3932966,6.3665493 15.4148046,6.35545775 L15.4685746,6.3221831 C15.5546067,6.26672535 15.6406387,6.20017606 15.7266707,6.14471831 C15.9417508,6.01161972 16.1675849,5.87852113 16.414927,5.76760563 C16.4902051,5.73433099 16.5654831,5.70105634 16.6407611,5.66778169 L16.7052852,5.63450704 C16.8665952,5.56795775 17.0171513,5.5125 17.1569534,5.4681338 C17.7806856,5.26848592 18.4259259,5.15757042 19.0819202,5.15757042 C19.0926742,5.15757042 19.0926742,5.15757042 19.1034282,5.15757042 C21.8779614,5.15757042 24.3191205,6.96549296 25.2224569,9.66073944 C25.2224569,9.67183099 25.2224569,9.67183099 25.2224569,9.67183099 C25.437537,10.3373239 25.545077,11.0360915 25.545077,11.7459507 C25.545077,12.2228873 25.502061,12.6887324 25.416029,13.1323944 C25.394521,13.2544014 25.362259,13.3764085 25.3299969,13.509507 C25.0396388,14.618662 24.3406285,15.9829225 23.5340782,16.981162 C23.4695541,17.0588028 23.4265381,17.1142606 23.3942761,17.1697183 C23.254474,17.3582746 23.18995,17.4359155 22.6522498,17.9683099 C21.6306193,18.9776408 20.6089889,19.5765845 19.9314866,19.8982394 C19.6088664,20.0535211 19.2754923,20.1866197 18.9421182,20.3086268 L18.9206101,20.3086268 C18.641006,20.4195423 17.9097337,20.6746479 17.3397715,20.8299296 C17.2429854,20.8632042 17.2429854,20.8742958 17.2644934,20.8853873 C17.2967554,20.9075704 17.3182634,20.9297535 17.3612795,20.9075704 C17.3720335,20.9075704 17.3935415,20.8964789 17.4042955,20.8964789 C17.9312417,20.7633803 18.4474339,20.597007 18.9528722,20.4084507 C18.9636262,20.4084507 18.9743802,20.3973592 18.9743802,20.3973592 L18.9743802,20.3973592 C19.3077543,20.2753521 19.6518825,20.1422535 19.9745026,19.9869718 C20.6627589,19.6653169 21.6951434,19.0552817 22.7275278,18.0348592 C23.265228,17.4913732 23.3297521,17.4137324 23.4803081,17.2140845 C23.5125701,17.1697183 23.5555862,17.103169 23.6201102,17.0366197 C24.4266605,16.0272887 25.1364249,14.6519366 25.437537,13.5205986 C25.469799,13.3875 25.502061,13.265493 25.523569,13.1434859 C25.6203551,12.6887324 25.6633711,12.2228873 25.6633711,11.7348592 C25.6633711,11.0582746 25.555831,10.3705986 25.3515049,9.72728873 Z" id="Path" fill="url(#linearGradient-8)"></path>
                <path d="M19.0496582,23.3255282 C18.54422,23.3255282 18.0280278,23.3033451 17.5333435,23.2700704 C15.6729007,23.1369718 13.8339659,22.7376761 12.0810632,22.1054577 C12.0810632,22.1054577 11.3390368,21.8170775 10.5324865,21.5065141 C10.2098663,21.3734155 9.26351393,20.8853873 9.26351393,20.8853873 C9.26351393,20.8853873 10.3819304,21.1959507 10.8013366,21.2735915 C11.607887,21.4177817 12.2101112,21.484331 12.2101112,21.484331 C12.7800735,21.5508803 13.3500357,21.5841549 13.930752,21.5841549 C15.6406387,21.5841549 17.3182634,21.2846831 18.9206101,20.6857394 L18.9743802,20.6635563 L18.9958882,20.6635563 L19.0496582,20.6413732 L19.0711662,20.6302817 C19.4045404,20.5082746 19.7379145,20.3751761 20.0605346,20.2198944 C20.899347,19.8205986 21.6843893,19.2882042 22.4049077,18.6448944 L22.6199878,18.456338 L22.8243138,18.6559859 C23.7061422,19.5322183 24.6524946,21.3068662 25.0073768,22.0389085 L25.1794409,22.393838 L24.8138047,22.5047535 C24.5664626,22.5713028 24.3191205,22.6378521 24.0717784,22.7044014 L23.8136823,22.7709507 C23.211458,22.9151408 22.5984797,23.0260563 21.9639935,23.1258803 C21.8241914,23.1480634 21.6951434,23.1591549 21.5660953,23.181338 C21.4370472,23.1924296 21.2972452,23.2146127 21.1681971,23.2257042 L21.1251811,23.2257042 C21.0391491,23.2367958 20.942363,23.2478873 20.856331,23.2478873 L20.7057749,23.2589789 C20.1895827,23.3033451 19.6518825,23.3255282 19.1249362,23.3255282 L19.1249362,23.3255282 L19.0496582,23.3255282 Z" id="Path" fill="url(#linearGradient-9)"></path>
                <path d="M16.210601,4.85809859 C15.5223447,3.92640845 14.3286501,2.4068662 13.6619018,1.575 L13.3500357,1.18679577 L13.8232119,1.06478873 C13.909244,1.04260563 14.1673401,0.976056338 14.1673401,0.976056338 L14.3394041,0.931690141 C14.5867463,0.876232394 14.8340884,0.820774648 15.1136925,0.765316901 C15.2857566,0.732042254 15.4578206,0.698767606 15.6298847,0.665492958 C16.0600449,0.598943662 16.4364351,0.543485915 16.8343332,0.499119718 C16.8881033,0.488028169 16.9311193,0.488028169 16.9633813,0.488028169 L17.4580655,0.443661972 C17.9850117,0.399295775 18.511958,0.377112676 19.0496582,0.377112676 L19.1249362,0.377112676 C19.6303745,0.377112676 20.1358127,0.399295775 20.6412509,0.432570423 C20.996133,0.454753521 21.3510152,0.499119718 21.7058974,0.543485915 C21.8349454,0.554577465 21.9639935,0.576760563 22.0930415,0.587852113 L22.1360575,0.587852113 C22.3511376,0.621126761 22.5554637,0.654401408 22.7705438,0.687676056 C22.9641159,0.720950704 23.157688,0.754225352 23.3405061,0.798591549 C24.6847567,1.07588028 25.9967452,1.49735915 27.2549638,2.04084507 L27.4807979,2.14066901 C27.4807979,2.14066901 28.9971125,2.76179577 29.8466789,3.29419014 C30.051005,3.42728873 30.6639833,3.82658451 30.6639833,3.82658451 C30.6639833,3.82658451 29.2552087,3.26091549 28.8142945,3.11672535 C28.4163963,2.99471831 27.3087338,2.73961268 27.3087338,2.73961268 C26.4484134,2.57323944 25.566585,2.49559859 24.6847567,2.49559859 C21.8994694,2.49559859 19.0496582,3.36073944 16.6515152,4.92464789 L16.414927,5.07992958 L16.210601,4.85809859 Z" id="Path" fill="url(#linearGradient-10)"></path>
                <g opacity="0.6" transform="translate(29.072391, 7.875000)" fill="#FFFFFF" id="Path">
                    <g>
                        <path d="M3.23695541,4.83591549 C3.36600347,4.55862676 3.4412815,4.24806338 3.4412815,3.92640845 C3.4412815,3.56038732 3.34449546,3.2165493 3.17243138,2.91707746 C3.14016937,2.86161972 3.10790736,2.80616197 3.07564534,2.76179577 C3.07564534,2.75070423 3.06489134,2.73961268 3.05413733,2.73961268 C3.05413733,2.73961268 3.05413733,2.73961268 3.05413733,2.73961268 C3.04338333,2.72852113 3.04338333,2.71742958 3.03262932,2.70633803 C3.01112131,2.68415493 3.00036731,2.66197183 2.9788593,2.63978873 C2.9681053,2.61760563 2.94659729,2.60651408 2.93584328,2.58433099 C2.92508928,2.57323944 2.91433527,2.56214789 2.90358127,2.55105634 C2.90358127,2.53996479 2.89282726,2.52887324 2.88207326,2.52887324 C2.87131925,2.51778169 2.86056525,2.50669014 2.84981124,2.49559859 C2.84981124,2.49559859 2.84981124,2.49559859 2.84981124,2.48450704 C2.84981124,2.48450704 2.84981124,2.48450704 2.84981124,2.48450704 C2.61322314,2.21830986 2.37663504,1.95211268 2.12929293,1.69700704 C1.54857668,1.09806338 0.935598408,0.554577465 0.290358127,0.0554577465 C0.193572084,-0.0221830986 0.0645240282,0.0554577465 0.107540047,0.177464789 C0.333374145,0.809683099 0.505438221,1.47517606 0.612978268,2.16285211 C0.645240282,2.3846831 0.677502296,2.61760563 0.699010305,2.83943662 C0.731272319,3.20545775 0.752780329,3.57147887 0.752780329,3.94859155 C0.752780329,4.32570423 0.731272319,4.71390845 0.699010305,5.07992958 C0.677502296,5.30176056 0.645240282,5.52359155 0.612978268,5.73433099 C0.516192225,6.37764085 0.36563616,6.99876761 0.16131007,7.59771127 C0.107540047,7.75299296 0.258096113,7.875 0.376390164,7.77517606 C0.989368432,7.28714789 1.58083869,6.75475352 2.12929293,6.17799296 C2.36588103,5.93397887 2.60246914,5.67887324 2.82830323,5.41267606 L2.82830323,5.41267606 C2.84981124,5.39049296 2.87131925,5.36830986 2.90358127,5.33503521 C2.90358127,5.33503521 2.90358127,5.33503521 2.90358127,5.33503521 C2.92508928,5.31285211 2.94659729,5.27957746 2.9681053,5.25739437 C2.9896133,5.23521127 3.01112131,5.20193662 3.03262932,5.17975352 C3.05413733,5.15757042 3.07564534,5.12429577 3.09715335,5.10211268 C3.10790736,5.09102113 3.10790736,5.09102113 3.11866136,5.07992958 C3.15092338,5.00228873 3.2046934,4.92464789 3.23695541,4.83591549 Z"></path>
                    </g>
                </g>
                <g opacity="0.6" transform="translate(5.628660, 7.985915)" fill="#FFFFFF" id="Path">
                    <g>
                        <path d="M3.26921743,7.8528169 C3.34449546,7.90827465 3.41977349,7.8528169 3.38751148,7.76408451 C2.94659729,6.56619718 2.71000918,5.25739437 2.69925518,3.90422535 C2.69925518,2.60651408 2.90358127,1.36426056 3.30147944,0.210739437 C3.34449546,0.0665492958 3.24770942,-0.0554577465 3.15092338,0.0332746479 C2.5164371,0.532394366 1.91421284,1.07588028 1.35500459,1.66373239 C1.11841649,1.90774648 0.881828385,2.16285211 0.655994286,2.4290493 C0.602224263,2.47341549 0.559208244,2.52887324 0.516192225,2.58433099 C0.473176207,2.63978873 0.430160188,2.69524648 0.397898174,2.75070423 C0.397898174,2.76179577 0.387144169,2.76179577 0.376390164,2.77288732 C0.322620141,2.85052817 0.279604122,2.93926056 0.236588103,3.01690141 C0.107540047,3.29419014 0.0322620141,3.60475352 0.0322620141,3.92640845 C0.0322620141,4.29242958 0.129048056,4.64735915 0.301112131,4.93573944 C0.333374145,4.99119718 0.36563616,5.04665493 0.397898174,5.09102113 C0.408652178,5.10211268 0.408652178,5.11320423 0.419406183,5.12429577 C0.419406183,5.12429577 0.419406183,5.12429577 0.419406183,5.12429577 C0.430160188,5.13538732 0.430160188,5.14647887 0.440914192,5.15757042 C0.505438221,5.23521127 0.569962249,5.31285211 0.634486277,5.37940141 C0.87107438,5.64559859 1.10766248,5.91179577 1.35500459,6.16690141 C1.95722885,6.77693662 2.60246914,7.34260563 3.26921743,7.8528169 Z"></path>
                    </g>
                </g>
                <path d="M17.2860014,20.918662 C17.2752474,20.918662 17.2537394,20.918662 17.2429854,20.9075704 C17.1784614,20.8410211 17.1569534,20.7301056 17.2214774,20.6191901 C17.2537394,20.5637324 17.2967554,20.5082746 17.3505255,20.4417254 L17.4042955,20.3640845 C17.4150495,20.3419014 17.6516376,20.031338 17.8882257,19.6653169 C18.0065197,19.4767606 18.0817978,19.1772887 17.9635037,18.8778169 C17.8344557,18.5672535 17.5440975,18.4341549 17.4150495,18.4008803 C17.2644934,18.3565141 17.1139374,18.3121479 16.9741353,18.2677817 C16.9633813,18.2677817 16.9526273,18.2566901 16.9526273,18.2566901 C16.9418733,18.2566901 16.9418733,18.2566901 16.9311193,18.2455986 C16.9096113,18.234507 16.8988573,18.234507 16.8773493,18.2234155 C16.7805632,18.1901408 16.6945312,18.1568662 16.5977451,18.1125 L16.5332211,18.0792254 C16.4364351,18.0348592 16.350403,18.0015845 16.264371,17.9572183 C16.242863,17.9461268 16.210601,17.9350352 16.1890929,17.9239437 C16.1675849,17.9128521 16.1568309,17.9017606 16.1353229,17.9017606 C16.1138149,17.9017606 15.4578206,17.5024648 15.4578206,17.5024648 C15.4363126,17.4913732 15.4255586,17.4802817 15.4040506,17.4691901 C15.3502806,17.4248239 15.2857566,17.3915493 15.2212325,17.3471831 C15.1674625,17.3028169 15.1029385,17.2584507 15.0491685,17.2140845 C14.9738904,17.1475352 14.8771044,17.0809859 14.7910723,17.0033451 C14.7695643,16.981162 14.7480563,16.9589789 14.7157943,16.9367958 L14.6727783,16.9035211 C14.5975003,16.8369718 14.5329762,16.7704225 14.4576982,16.7038732 C13.1887256,15.4172535 12.4897153,13.7091549 12.4897153,11.8790493 C12.4789613,10.0600352 13.1672176,8.35193662 14.4039282,7.07640845 C14.4576982,7.0209507 14.5114682,6.96549296 14.5652382,6.91003521 L14.6727783,6.81021127 C14.7265483,6.76584507 14.8018263,6.68820423 14.8555964,6.65492958 C14.8771044,6.63274648 14.9201204,6.64383803 14.9308744,6.66602113 C14.9523824,6.68820423 14.9416284,6.73257042 14.9201204,6.74366197 C14.8771044,6.77693662 14.8018263,6.84348592 14.7480563,6.88785211 L14.6512703,6.97658451 C14.5975003,7.03204225 14.5437302,7.0875 14.4899602,7.14295775 C13.2747577,8.40739437 12.6080094,10.0822183 12.6080094,11.8679577 C12.6187634,13.6647887 13.2962657,15.3507042 14.5437302,16.6040493 C14.6082543,16.6705986 14.6835323,16.7371479 14.7480563,16.8036972 L14.7910723,16.8369718 C14.8125803,16.8591549 14.8340884,16.881338 14.8555964,16.8924296 C14.9416284,16.9700704 15.0276604,17.0366197 15.1029385,17.103169 C15.1567085,17.1475352 15.2212325,17.1919014 15.2750026,17.2362676 C15.3287726,17.2806338 15.3932966,17.3139085 15.4470666,17.3582746 C15.4685746,17.3693662 16.1353229,17.768662 16.1675849,17.7908451 C16.1890929,17.8019366 16.199847,17.8130282 16.221355,17.8241197 C16.242863,17.8352113 16.264371,17.8463028 16.285879,17.8573944 C16.371911,17.9017606 16.4579431,17.9461268 16.5547291,17.9794014 L16.6192531,18.0126761 C16.7052852,18.0459507 16.8020712,18.0903169 16.8881033,18.1235915 C16.8988573,18.1235915 16.9203653,18.1346831 16.9418733,18.1457746 C16.9526273,18.1457746 16.9526273,18.1457746 16.9633813,18.1568662 C16.9741353,18.1568662 16.9741353,18.1568662 16.9848893,18.1679577 C17.1461994,18.2234155 17.3075094,18.2788732 17.4688195,18.3121479 C17.6623916,18.3565141 17.8237017,18.5117958 17.9419957,18.6559859 C17.9635037,18.678169 18.0280278,18.7336268 18.0925518,18.9776408 C18.1678298,19.2882042 18.0817978,19.5544014 17.9742577,19.7318662 C17.7376696,20.1089789 17.4903275,20.4306338 17.4795735,20.4528169 L17.4258035,20.5304577 C17.3827875,20.597007 17.3397715,20.6524648 17.3075094,20.7079225 C17.2752474,20.7633803 17.2860014,20.818838 17.3075094,20.8521127 C17.3290174,20.8742958 17.3290174,20.9075704 17.3075094,20.9297535 C17.3182634,20.9075704 17.2967554,20.918662 17.2860014,20.918662 Z" id="Path" fill="url(#linearGradient-11)"></path>
            </g>
            <g id="Group-3" transform="translate(14.124324, 6.987676)">
                <path d="M7.74288338,1.56390845 C8.49566371,2.3181338 8.96883991,3.36073944 8.95808591,4.52535211 C8.97959392,5.68996479 8.52792572,6.75475352 7.7966534,7.53116197 C7.75363738,7.57552817 7.71062137,7.61989437 7.66760535,7.66426056 C7.64609734,7.68644366 7.62458933,7.70862676 7.60308132,7.73080986 C7.5600653,7.77517606 7.50629528,7.81954225 7.45252525,7.86390845 C7.42026324,7.8971831 7.37724722,7.9193662 7.34498521,7.95264085 C7.31272319,7.97482394 7.26970717,8.00809859 7.23744516,8.03028169 C7.21593715,8.05246479 7.20518314,8.06355634 7.18367514,8.07464789 C7.17292113,8.08573944 7.17292113,8.08573944 7.16216713,8.08573944 C7.15141312,8.08573944 6.79653097,8.31866197 6.78577696,8.31866197 C6.76426895,8.32975352 6.73200694,8.35193662 6.71049893,8.36302817 C6.65672891,8.38521127 6.60295888,8.41848592 6.54918886,8.44066901 C6.53843485,8.45176056 6.51692684,8.46285211 6.50617284,8.46285211 C6.45240282,8.48503521 6.39863279,8.50721831 6.34486277,8.52940141 C6.33410876,8.52940141 6.32335476,8.54049296 6.31260076,8.54049296 C6.30184675,8.54049296 6.29109275,8.55158451 6.28033874,8.55158451 C6.16204469,8.5959507 6.17279869,8.5959507 6.04375064,8.6403169 C5.93621059,8.67359155 5.7211305,8.71795775 5.65660647,8.99524648 C5.60283645,9.22816901 5.71037649,9.39454225 5.74263851,9.43890845 C5.93621059,9.68292254 5.9684726,9.76056338 6.02224263,9.83820423 C6.06525865,9.89366197 6.10827467,9.94911972 6.14053668,9.99348592 C6.1943067,10.0711268 6.14053668,10.1487676 6.06525865,10.1487676 C5.97922661,10.1487676 5.87168656,10.1265845 5.71037649,10.0822183 C5.67811448,10.0711268 5.38775635,9.98239437 5.06513621,9.88257042 C5.06513621,9.88257042 5.05438221,9.88257042 5.05438221,9.88257042 C4.86081012,9.81602113 4.65648403,9.73838028 4.43064993,9.63855634 C3.91445771,9.39454225 3.26921743,9.09507042 2.68850117,8.54049296 C2.25834099,8.11901408 2.31211101,8.15228873 2.12929293,7.93045775 C1.65611672,7.35369718 1.17218651,6.51073944 0.967860422,5.76760563 C0.946352413,5.68996479 0.924844404,5.61232394 0.914090399,5.5346831 C0.849566371,5.25739437 0.817304357,4.96901408 0.817304357,4.66954225 C0.817304357,4.49207746 0.828058361,4.32570423 0.838812366,4.15933099 C1.25821855,4.51426056 1.80667279,4.725 2.39814305,4.69172535 C3.6671156,4.62517606 4.65648403,3.51602113 4.59196,2.20721831 C4.55969799,1.5306338 4.25858586,0.931690141 3.79616366,0.521302817 C4.14029181,0.421478873 4.48441996,0.377112676 4.85005612,0.366021127 C5.2694623,0.354929577 5.67811448,0.421478873 6.06525865,0.532394366 C6.16204469,0.565669014 6.24807673,0.598943662 6.34486277,0.63221831 C6.4093868,0.654401408 6.46315682,0.687676056 6.52768085,0.709859155 C6.67823691,0.776408451 6.82879298,0.854049296 6.96859504,0.94278169 C7.02236506,0.987147887 7.07613509,1.02042254 7.12990511,1.05369718 C7.16216713,1.06478873 7.18367514,1.08697183 7.21593715,1.10915493 C7.26970717,1.15352113 7.3234772,1.18679577 7.37724722,1.23116197 C7.42026324,1.27552817 7.46327926,1.30880282 7.50629528,1.34207746 C7.53855729,1.37535211 7.5708193,1.40862676 7.60308132,1.43080986 C7.64609734,1.47517606 7.69986736,1.51954225 7.74288338,1.56390845 Z" id="Combined-Shape" fill="url(#linearGradient-12)" fill-rule="nonzero"></path>
                <g id="Group" opacity="0.7">
                    <g></g>
                </g>
            </g>
        </g>
    </g>
</svg>